%TF.GenerationSoftware,KiCad,Pcbnew,9.0.2*%
%TF.CreationDate,2025-05-26T17:46:23-04:00*%
%TF.ProjectId,Second_Order_Low_Pass_Filter_Ac,5365636f-6e64-45f4-9f72-6465725f4c6f,rev?*%
%TF.SameCoordinates,Original*%
%TF.FileFunction,Legend,Top*%
%TF.FilePolarity,Positive*%
%FSLAX46Y46*%
G04 Gerber Fmt 4.6, Leading zero omitted, Abs format (unit mm)*
G04 Created by KiCad (PCBNEW 9.0.2) date 2025-05-26 17:46:23*
%MOMM*%
%LPD*%
G01*
G04 APERTURE LIST*
G04 Aperture macros list*
%AMRoundRect*
0 Rectangle with rounded corners*
0 $1 Rounding radius*
0 $2 $3 $4 $5 $6 $7 $8 $9 X,Y pos of 4 corners*
0 Add a 4 corners polygon primitive as box body*
4,1,4,$2,$3,$4,$5,$6,$7,$8,$9,$2,$3,0*
0 Add four circle primitives for the rounded corners*
1,1,$1+$1,$2,$3*
1,1,$1+$1,$4,$5*
1,1,$1+$1,$6,$7*
1,1,$1+$1,$8,$9*
0 Add four rect primitives between the rounded corners*
20,1,$1+$1,$2,$3,$4,$5,0*
20,1,$1+$1,$4,$5,$6,$7,0*
20,1,$1+$1,$6,$7,$8,$9,0*
20,1,$1+$1,$8,$9,$2,$3,0*%
G04 Aperture macros list end*
%ADD10C,0.150000*%
%ADD11C,0.120000*%
%ADD12C,3.000000*%
%ADD13C,10.160000*%
%ADD14RoundRect,0.250000X-0.950000X-0.550000X0.950000X-0.550000X0.950000X0.550000X-0.950000X0.550000X0*%
%ADD15O,2.400000X1.600000*%
%ADD16C,1.400000*%
%ADD17R,3.500000X3.500000*%
%ADD18C,4.000000*%
%ADD19C,1.600000*%
G04 APERTURE END LIST*
D10*
X182666666Y-75684819D02*
X182333333Y-75208628D01*
X182095238Y-75684819D02*
X182095238Y-74684819D01*
X182095238Y-74684819D02*
X182476190Y-74684819D01*
X182476190Y-74684819D02*
X182571428Y-74732438D01*
X182571428Y-74732438D02*
X182619047Y-74780057D01*
X182619047Y-74780057D02*
X182666666Y-74875295D01*
X182666666Y-74875295D02*
X182666666Y-75018152D01*
X182666666Y-75018152D02*
X182619047Y-75113390D01*
X182619047Y-75113390D02*
X182571428Y-75161009D01*
X182571428Y-75161009D02*
X182476190Y-75208628D01*
X182476190Y-75208628D02*
X182095238Y-75208628D01*
X183095238Y-75161009D02*
X183428571Y-75161009D01*
X183571428Y-75684819D02*
X183095238Y-75684819D01*
X183095238Y-75684819D02*
X183095238Y-74684819D01*
X183095238Y-74684819D02*
X183571428Y-74684819D01*
X184333333Y-75161009D02*
X184000000Y-75161009D01*
X184000000Y-75684819D02*
X184000000Y-74684819D01*
X184000000Y-74684819D02*
X184476190Y-74684819D01*
X185000000Y-74684819D02*
X185000000Y-74922914D01*
X184761905Y-74827676D02*
X185000000Y-74922914D01*
X185000000Y-74922914D02*
X185238095Y-74827676D01*
X184857143Y-75113390D02*
X185000000Y-74922914D01*
X185000000Y-74922914D02*
X185142857Y-75113390D01*
X185761905Y-74684819D02*
X185761905Y-74922914D01*
X185523810Y-74827676D02*
X185761905Y-74922914D01*
X185761905Y-74922914D02*
X186000000Y-74827676D01*
X185619048Y-75113390D02*
X185761905Y-74922914D01*
X185761905Y-74922914D02*
X185904762Y-75113390D01*
X114666666Y-110684819D02*
X114333333Y-110208628D01*
X114095238Y-110684819D02*
X114095238Y-109684819D01*
X114095238Y-109684819D02*
X114476190Y-109684819D01*
X114476190Y-109684819D02*
X114571428Y-109732438D01*
X114571428Y-109732438D02*
X114619047Y-109780057D01*
X114619047Y-109780057D02*
X114666666Y-109875295D01*
X114666666Y-109875295D02*
X114666666Y-110018152D01*
X114666666Y-110018152D02*
X114619047Y-110113390D01*
X114619047Y-110113390D02*
X114571428Y-110161009D01*
X114571428Y-110161009D02*
X114476190Y-110208628D01*
X114476190Y-110208628D02*
X114095238Y-110208628D01*
X115095238Y-110161009D02*
X115428571Y-110161009D01*
X115571428Y-110684819D02*
X115095238Y-110684819D01*
X115095238Y-110684819D02*
X115095238Y-109684819D01*
X115095238Y-109684819D02*
X115571428Y-109684819D01*
X116333333Y-110161009D02*
X116000000Y-110161009D01*
X116000000Y-110684819D02*
X116000000Y-109684819D01*
X116000000Y-109684819D02*
X116476190Y-109684819D01*
X117000000Y-109684819D02*
X117000000Y-109922914D01*
X116761905Y-109827676D02*
X117000000Y-109922914D01*
X117000000Y-109922914D02*
X117238095Y-109827676D01*
X116857143Y-110113390D02*
X117000000Y-109922914D01*
X117000000Y-109922914D02*
X117142857Y-110113390D01*
X117761905Y-109684819D02*
X117761905Y-109922914D01*
X117523810Y-109827676D02*
X117761905Y-109922914D01*
X117761905Y-109922914D02*
X118000000Y-109827676D01*
X117619048Y-110113390D02*
X117761905Y-109922914D01*
X117761905Y-109922914D02*
X117904762Y-110113390D01*
X148681666Y-117694819D02*
X148681666Y-118409104D01*
X148681666Y-118409104D02*
X148634047Y-118551961D01*
X148634047Y-118551961D02*
X148538809Y-118647200D01*
X148538809Y-118647200D02*
X148395952Y-118694819D01*
X148395952Y-118694819D02*
X148300714Y-118694819D01*
X149062619Y-117694819D02*
X149681666Y-117694819D01*
X149681666Y-117694819D02*
X149348333Y-118075771D01*
X149348333Y-118075771D02*
X149491190Y-118075771D01*
X149491190Y-118075771D02*
X149586428Y-118123390D01*
X149586428Y-118123390D02*
X149634047Y-118171009D01*
X149634047Y-118171009D02*
X149681666Y-118266247D01*
X149681666Y-118266247D02*
X149681666Y-118504342D01*
X149681666Y-118504342D02*
X149634047Y-118599580D01*
X149634047Y-118599580D02*
X149586428Y-118647200D01*
X149586428Y-118647200D02*
X149491190Y-118694819D01*
X149491190Y-118694819D02*
X149205476Y-118694819D01*
X149205476Y-118694819D02*
X149110238Y-118647200D01*
X149110238Y-118647200D02*
X149062619Y-118599580D01*
X148238095Y-86314819D02*
X148238095Y-87124342D01*
X148238095Y-87124342D02*
X148285714Y-87219580D01*
X148285714Y-87219580D02*
X148333333Y-87267200D01*
X148333333Y-87267200D02*
X148428571Y-87314819D01*
X148428571Y-87314819D02*
X148619047Y-87314819D01*
X148619047Y-87314819D02*
X148714285Y-87267200D01*
X148714285Y-87267200D02*
X148761904Y-87219580D01*
X148761904Y-87219580D02*
X148809523Y-87124342D01*
X148809523Y-87124342D02*
X148809523Y-86314819D01*
X149809523Y-87314819D02*
X149238095Y-87314819D01*
X149523809Y-87314819D02*
X149523809Y-86314819D01*
X149523809Y-86314819D02*
X149428571Y-86457676D01*
X149428571Y-86457676D02*
X149333333Y-86552914D01*
X149333333Y-86552914D02*
X149238095Y-86600533D01*
X135833333Y-86534819D02*
X135500000Y-86058628D01*
X135261905Y-86534819D02*
X135261905Y-85534819D01*
X135261905Y-85534819D02*
X135642857Y-85534819D01*
X135642857Y-85534819D02*
X135738095Y-85582438D01*
X135738095Y-85582438D02*
X135785714Y-85630057D01*
X135785714Y-85630057D02*
X135833333Y-85725295D01*
X135833333Y-85725295D02*
X135833333Y-85868152D01*
X135833333Y-85868152D02*
X135785714Y-85963390D01*
X135785714Y-85963390D02*
X135738095Y-86011009D01*
X135738095Y-86011009D02*
X135642857Y-86058628D01*
X135642857Y-86058628D02*
X135261905Y-86058628D01*
X136690476Y-85868152D02*
X136690476Y-86534819D01*
X136452381Y-85487200D02*
X136214286Y-86201485D01*
X136214286Y-86201485D02*
X136833333Y-86201485D01*
X161534819Y-93356666D02*
X161058628Y-93689999D01*
X161534819Y-93928094D02*
X160534819Y-93928094D01*
X160534819Y-93928094D02*
X160534819Y-93547142D01*
X160534819Y-93547142D02*
X160582438Y-93451904D01*
X160582438Y-93451904D02*
X160630057Y-93404285D01*
X160630057Y-93404285D02*
X160725295Y-93356666D01*
X160725295Y-93356666D02*
X160868152Y-93356666D01*
X160868152Y-93356666D02*
X160963390Y-93404285D01*
X160963390Y-93404285D02*
X161011009Y-93451904D01*
X161011009Y-93451904D02*
X161058628Y-93547142D01*
X161058628Y-93547142D02*
X161058628Y-93928094D01*
X160534819Y-93023332D02*
X160534819Y-92404285D01*
X160534819Y-92404285D02*
X160915771Y-92737618D01*
X160915771Y-92737618D02*
X160915771Y-92594761D01*
X160915771Y-92594761D02*
X160963390Y-92499523D01*
X160963390Y-92499523D02*
X161011009Y-92451904D01*
X161011009Y-92451904D02*
X161106247Y-92404285D01*
X161106247Y-92404285D02*
X161344342Y-92404285D01*
X161344342Y-92404285D02*
X161439580Y-92451904D01*
X161439580Y-92451904D02*
X161487200Y-92499523D01*
X161487200Y-92499523D02*
X161534819Y-92594761D01*
X161534819Y-92594761D02*
X161534819Y-92880475D01*
X161534819Y-92880475D02*
X161487200Y-92975713D01*
X161487200Y-92975713D02*
X161439580Y-93023332D01*
X138023333Y-77534819D02*
X137690000Y-77058628D01*
X137451905Y-77534819D02*
X137451905Y-76534819D01*
X137451905Y-76534819D02*
X137832857Y-76534819D01*
X137832857Y-76534819D02*
X137928095Y-76582438D01*
X137928095Y-76582438D02*
X137975714Y-76630057D01*
X137975714Y-76630057D02*
X138023333Y-76725295D01*
X138023333Y-76725295D02*
X138023333Y-76868152D01*
X138023333Y-76868152D02*
X137975714Y-76963390D01*
X137975714Y-76963390D02*
X137928095Y-77011009D01*
X137928095Y-77011009D02*
X137832857Y-77058628D01*
X137832857Y-77058628D02*
X137451905Y-77058628D01*
X138404286Y-76630057D02*
X138451905Y-76582438D01*
X138451905Y-76582438D02*
X138547143Y-76534819D01*
X138547143Y-76534819D02*
X138785238Y-76534819D01*
X138785238Y-76534819D02*
X138880476Y-76582438D01*
X138880476Y-76582438D02*
X138928095Y-76630057D01*
X138928095Y-76630057D02*
X138975714Y-76725295D01*
X138975714Y-76725295D02*
X138975714Y-76820533D01*
X138975714Y-76820533D02*
X138928095Y-76963390D01*
X138928095Y-76963390D02*
X138356667Y-77534819D01*
X138356667Y-77534819D02*
X138975714Y-77534819D01*
X122023333Y-77534819D02*
X121690000Y-77058628D01*
X121451905Y-77534819D02*
X121451905Y-76534819D01*
X121451905Y-76534819D02*
X121832857Y-76534819D01*
X121832857Y-76534819D02*
X121928095Y-76582438D01*
X121928095Y-76582438D02*
X121975714Y-76630057D01*
X121975714Y-76630057D02*
X122023333Y-76725295D01*
X122023333Y-76725295D02*
X122023333Y-76868152D01*
X122023333Y-76868152D02*
X121975714Y-76963390D01*
X121975714Y-76963390D02*
X121928095Y-77011009D01*
X121928095Y-77011009D02*
X121832857Y-77058628D01*
X121832857Y-77058628D02*
X121451905Y-77058628D01*
X122975714Y-77534819D02*
X122404286Y-77534819D01*
X122690000Y-77534819D02*
X122690000Y-76534819D01*
X122690000Y-76534819D02*
X122594762Y-76677676D01*
X122594762Y-76677676D02*
X122499524Y-76772914D01*
X122499524Y-76772914D02*
X122404286Y-76820533D01*
X171154819Y-93268333D02*
X171869104Y-93268333D01*
X171869104Y-93268333D02*
X172011961Y-93315952D01*
X172011961Y-93315952D02*
X172107200Y-93411190D01*
X172107200Y-93411190D02*
X172154819Y-93554047D01*
X172154819Y-93554047D02*
X172154819Y-93649285D01*
X171250057Y-92839761D02*
X171202438Y-92792142D01*
X171202438Y-92792142D02*
X171154819Y-92696904D01*
X171154819Y-92696904D02*
X171154819Y-92458809D01*
X171154819Y-92458809D02*
X171202438Y-92363571D01*
X171202438Y-92363571D02*
X171250057Y-92315952D01*
X171250057Y-92315952D02*
X171345295Y-92268333D01*
X171345295Y-92268333D02*
X171440533Y-92268333D01*
X171440533Y-92268333D02*
X171583390Y-92315952D01*
X171583390Y-92315952D02*
X172154819Y-92887380D01*
X172154819Y-92887380D02*
X172154819Y-92268333D01*
X126754819Y-93333333D02*
X127469104Y-93333333D01*
X127469104Y-93333333D02*
X127611961Y-93380952D01*
X127611961Y-93380952D02*
X127707200Y-93476190D01*
X127707200Y-93476190D02*
X127754819Y-93619047D01*
X127754819Y-93619047D02*
X127754819Y-93714285D01*
X127754819Y-92333333D02*
X127754819Y-92904761D01*
X127754819Y-92619047D02*
X126754819Y-92619047D01*
X126754819Y-92619047D02*
X126897676Y-92714285D01*
X126897676Y-92714285D02*
X126992914Y-92809523D01*
X126992914Y-92809523D02*
X127040533Y-92904761D01*
X138859580Y-97166666D02*
X138907200Y-97214285D01*
X138907200Y-97214285D02*
X138954819Y-97357142D01*
X138954819Y-97357142D02*
X138954819Y-97452380D01*
X138954819Y-97452380D02*
X138907200Y-97595237D01*
X138907200Y-97595237D02*
X138811961Y-97690475D01*
X138811961Y-97690475D02*
X138716723Y-97738094D01*
X138716723Y-97738094D02*
X138526247Y-97785713D01*
X138526247Y-97785713D02*
X138383390Y-97785713D01*
X138383390Y-97785713D02*
X138192914Y-97738094D01*
X138192914Y-97738094D02*
X138097676Y-97690475D01*
X138097676Y-97690475D02*
X138002438Y-97595237D01*
X138002438Y-97595237D02*
X137954819Y-97452380D01*
X137954819Y-97452380D02*
X137954819Y-97357142D01*
X137954819Y-97357142D02*
X138002438Y-97214285D01*
X138002438Y-97214285D02*
X138050057Y-97166666D01*
X138050057Y-96785713D02*
X138002438Y-96738094D01*
X138002438Y-96738094D02*
X137954819Y-96642856D01*
X137954819Y-96642856D02*
X137954819Y-96404761D01*
X137954819Y-96404761D02*
X138002438Y-96309523D01*
X138002438Y-96309523D02*
X138050057Y-96261904D01*
X138050057Y-96261904D02*
X138145295Y-96214285D01*
X138145295Y-96214285D02*
X138240533Y-96214285D01*
X138240533Y-96214285D02*
X138383390Y-96261904D01*
X138383390Y-96261904D02*
X138954819Y-96833332D01*
X138954819Y-96833332D02*
X138954819Y-96214285D01*
X154833333Y-81859580D02*
X154785714Y-81907200D01*
X154785714Y-81907200D02*
X154642857Y-81954819D01*
X154642857Y-81954819D02*
X154547619Y-81954819D01*
X154547619Y-81954819D02*
X154404762Y-81907200D01*
X154404762Y-81907200D02*
X154309524Y-81811961D01*
X154309524Y-81811961D02*
X154261905Y-81716723D01*
X154261905Y-81716723D02*
X154214286Y-81526247D01*
X154214286Y-81526247D02*
X154214286Y-81383390D01*
X154214286Y-81383390D02*
X154261905Y-81192914D01*
X154261905Y-81192914D02*
X154309524Y-81097676D01*
X154309524Y-81097676D02*
X154404762Y-81002438D01*
X154404762Y-81002438D02*
X154547619Y-80954819D01*
X154547619Y-80954819D02*
X154642857Y-80954819D01*
X154642857Y-80954819D02*
X154785714Y-81002438D01*
X154785714Y-81002438D02*
X154833333Y-81050057D01*
X155785714Y-81954819D02*
X155214286Y-81954819D01*
X155500000Y-81954819D02*
X155500000Y-80954819D01*
X155500000Y-80954819D02*
X155404762Y-81097676D01*
X155404762Y-81097676D02*
X155309524Y-81192914D01*
X155309524Y-81192914D02*
X155214286Y-81240533D01*
D11*
%TO.C,REF\u002A\u002A*%
X179380000Y-76230000D02*
X179380000Y-83770000D01*
X179380000Y-76230000D02*
X188620000Y-76230000D01*
X179380000Y-83770000D02*
X188620000Y-83770000D01*
X188620000Y-76230000D02*
X188620000Y-83770000D01*
X111380000Y-111230000D02*
X111380000Y-118770000D01*
X111380000Y-111230000D02*
X120620000Y-111230000D01*
X111380000Y-118770000D02*
X120620000Y-118770000D01*
X120620000Y-111230000D02*
X120620000Y-118770000D01*
%TO.C,J3*%
X164000000Y-106750000D02*
X134000000Y-106750000D01*
X134000000Y-117250000D02*
X164000000Y-117250000D01*
X164000000Y-106750000D02*
G75*
G02*
X164000000Y-117250000I0J-5250000D01*
G01*
X134000000Y-117250000D02*
G75*
G02*
X134000000Y-106750000I0J5250000D01*
G01*
%TO.C,U1*%
X146750000Y-87860000D02*
X146750000Y-98140000D01*
X146750000Y-98140000D02*
X151250000Y-98140000D01*
X148000000Y-87860000D02*
X146750000Y-87860000D01*
X151250000Y-87860000D02*
X150000000Y-87860000D01*
X151250000Y-98140000D02*
X151250000Y-87860000D01*
X150000000Y-87860000D02*
G75*
G02*
X148000000Y-87860000I-1000000J0D01*
G01*
%TO.C,R4*%
X133130000Y-88000000D02*
X134080000Y-88000000D01*
X138870000Y-88000000D02*
X137920000Y-88000000D01*
X134080000Y-87080000D02*
X137920000Y-87080000D01*
X137920000Y-88920000D01*
X134080000Y-88920000D01*
X134080000Y-87080000D01*
%TO.C,R3*%
X163000000Y-96060000D02*
X163000000Y-95110000D01*
X163000000Y-90320000D02*
X163000000Y-91270000D01*
X162080000Y-95110000D02*
X163920000Y-95110000D01*
X163920000Y-91270000D01*
X162080000Y-91270000D01*
X162080000Y-95110000D01*
%TO.C,R2*%
X135320000Y-79000000D02*
X136270000Y-79000000D01*
X141060000Y-79000000D02*
X140110000Y-79000000D01*
X136270000Y-78080000D02*
X140110000Y-78080000D01*
X140110000Y-79920000D01*
X136270000Y-79920000D01*
X136270000Y-78080000D01*
%TO.C,R1*%
X119320000Y-79000000D02*
X120270000Y-79000000D01*
X125060000Y-79000000D02*
X124110000Y-79000000D01*
X120270000Y-78080000D02*
X124110000Y-78080000D01*
X124110000Y-79920000D01*
X120270000Y-79920000D01*
X120270000Y-78080000D01*
%TO.C,J2*%
X182825000Y-87205000D02*
X177175000Y-87205000D01*
X174270000Y-90110000D02*
X174270000Y-95760000D01*
X185300000Y-92935000D02*
X184600000Y-92435000D01*
X185300000Y-92935000D02*
X184600000Y-93435000D01*
X185500000Y-95760000D02*
X185500000Y-90110000D01*
X177175000Y-98665000D02*
X182825000Y-98665000D01*
%TO.C,J1*%
X116175000Y-98730000D02*
X121825000Y-98730000D01*
X124730000Y-95825000D02*
X124730000Y-90175000D01*
X113700000Y-93000000D02*
X114400000Y-93500000D01*
X113700000Y-93000000D02*
X114400000Y-92500000D01*
X113500000Y-90175000D02*
X113500000Y-95825000D01*
X121825000Y-87270000D02*
X116175000Y-87270000D01*
%TO.C,C2*%
X137370000Y-94380000D02*
X137033000Y-94380000D01*
X137370000Y-94380000D02*
X137370000Y-99620000D01*
X134967000Y-94380000D02*
X134630000Y-94380000D01*
X134630000Y-94380000D02*
X134630000Y-99620000D01*
X137370000Y-99620000D02*
X137033000Y-99620000D01*
X134967000Y-99620000D02*
X134630000Y-99620000D01*
%TO.C,C1*%
X157620000Y-80370000D02*
X157620000Y-80033000D01*
X157620000Y-80370000D02*
X152380000Y-80370000D01*
X157620000Y-77967000D02*
X157620000Y-77630000D01*
X157620000Y-77630000D02*
X152380000Y-77630000D01*
X152380000Y-80370000D02*
X152380000Y-80033000D01*
X152380000Y-77967000D02*
X152380000Y-77630000D01*
%TD*%
%LPC*%
D12*
%TO.C,REF\u002A\u002A*%
X184000000Y-80000000D03*
%TD*%
%TO.C,REF\u002A\u002A*%
X116000000Y-115000000D03*
%TD*%
D13*
%TO.C,J3*%
X164000000Y-112000000D03*
X134030000Y-112000000D03*
%TD*%
D14*
%TO.C,U1*%
X145190000Y-89190000D03*
D15*
X145190000Y-91730000D03*
X145190000Y-94270000D03*
X145190000Y-96810000D03*
X152810000Y-96810000D03*
X152810000Y-94270000D03*
X152810000Y-91730000D03*
X152810000Y-89190000D03*
%TD*%
D16*
%TO.C,R4*%
X132190000Y-88000000D03*
X139810000Y-88000000D03*
%TD*%
%TO.C,R3*%
X163000000Y-97000000D03*
X163000000Y-89380000D03*
%TD*%
%TO.C,R2*%
X134380000Y-79000000D03*
X142000000Y-79000000D03*
%TD*%
%TO.C,R1*%
X118380000Y-79000000D03*
X126000000Y-79000000D03*
%TD*%
D17*
%TO.C,J2*%
X180000000Y-92935000D03*
D18*
X185025000Y-87910000D03*
X174975000Y-87910000D03*
X185025000Y-97960000D03*
X174975000Y-97960000D03*
%TD*%
D17*
%TO.C,J1*%
X119000000Y-93000000D03*
D18*
X113975000Y-98025000D03*
X124025000Y-98025000D03*
X113975000Y-87975000D03*
X124025000Y-87975000D03*
%TD*%
D19*
%TO.C,C2*%
X136000000Y-94500000D03*
X136000000Y-99500000D03*
%TD*%
%TO.C,C1*%
X157500000Y-79000000D03*
X152500000Y-79000000D03*
%TD*%
%LPD*%
M02*
