M48
; DRILL file {KiCad 9.0.2} date 2025-05-26T17:45:41-0400
; FORMAT={-:-/ absolute / metric / decimal}
; #@! TF.CreationDate,2025-05-26T17:45:41-04:00
; #@! TF.GenerationSoftware,Kicad,Pcbnew,9.0.2
; #@! TF.FileFunction,Plated,1,2,PTH
FMAT,2
METRIC
; #@! TA.AperFunction,Plated,PTH,ViaDrill
T1C0.300
; #@! TA.AperFunction,Plated,PTH,ComponentDrill
T2C0.700
; #@! TA.AperFunction,Plated,PTH,ComponentDrill
T3C0.800
; #@! TA.AperFunction,Plated,PTH,ComponentDrill
T4C1.100
; #@! TA.AperFunction,Plated,PTH,ComponentDrill
T5C1.500
; #@! TA.AperFunction,Plated,PTH,ComponentDrill
T6C6.100
%
G90
G05
T1
X140.0Y-92.0
T2
X118.38Y-79.0
X126.0Y-79.0
X132.19Y-88.0
X134.38Y-79.0
X139.81Y-88.0
X142.0Y-79.0
X163.0Y-89.38
X163.0Y-97.0
T3
X136.0Y-94.5
X136.0Y-99.5
X145.19Y-89.19
X145.19Y-91.73
X145.19Y-94.27
X145.19Y-96.81
X152.5Y-79.0
X152.81Y-89.19
X152.81Y-91.73
X152.81Y-94.27
X152.81Y-96.81
X157.5Y-79.0
T4
X119.0Y-93.0
X180.0Y-92.935
T5
X113.975Y-87.975
X113.975Y-98.025
X116.0Y-115.0
X124.025Y-87.975
X124.025Y-98.025
X174.975Y-87.91
X174.975Y-97.96
X184.0Y-80.0
X185.025Y-87.91
X185.025Y-97.96
T6
X134.03Y-112.0
X164.0Y-112.0
M30
